<?xml version="1.0" ?><svg viewBox="0 0 128 128" xmlns="http://www.w3.org/2000/svg"><defs><style>.cls-1{fill:#f8db94;}.cls-2{fill:#5bc9e1;}.cls-3{fill:#0083ca;}.cls-4{fill:#314967;}</style></defs><title/><g data-name="03 Trolley" id="_03_Trolley"><path class="cls-1" d="M47.25,83.5H96.93a4,4,0,0,0,3.86-3l9.87-37a4,4,0,0,0-3.86-5H42.88Z"/><path class="cls-2" d="M48.1,92.51l-7-69.25A4.73,4.73,0,0,0,36.42,19H20.5a4.5,4.5,0,0,0,0,9H31.91l7.4,73.5H100v-9Z"/><path class="cls-3" d="M43.28,109a8.24,8.24,0,1,1,8.24-8.24A8.24,8.24,0,0,1,43.28,109ZM109,100.76a8.24,8.24,0,1,0-8.24,8.24A8.24,8.24,0,0,0,109,100.76Z"/><path class="cls-4" d="M39.78,86.3,33.9,27.8a2,2,0,0,0-2-1.8H20.5c-3.3,0-3.3-5,0-5H36.42a2.73,2.73,0,0,1,2.72,2.46L42,51.51a2,2,0,0,0,4-.4L43.12,23.06A6.71,6.71,0,0,0,36.42,17H20.5a6.5,6.5,0,0,0,0,13h9.6L35.8,86.7A2,2,0,0,0,39.78,86.3Z"/><path class="cls-4" d="M50,40.5H88.79a2,2,0,0,0,0-4H50A2,2,0,0,0,50,40.5Z"/><path class="cls-4" d="M106.79,36.5h-12a2,2,0,0,0,0,4h12A2,2,0,0,1,108.73,43L98.86,80a2,2,0,0,1-1.93,1.48H85.75a2,2,0,0,0,0,4H96.93a6,6,0,0,0,5.8-4.45l9.87-37A6,6,0,0,0,106.79,36.5Z"/><path class="cls-4" d="M75,99.51H53.44a10.22,10.22,0,0,0-3.27-6.31l-.77-7.7H79a2,2,0,0,0,0-4H49l-2.42-24a2,2,0,0,0-4,.4l3.32,33a10.24,10.24,0,1,0,7.22,12.64H75A2,2,0,0,0,75,99.51ZM43.28,107a6.24,6.24,0,1,1,6.24-6.24A6.25,6.25,0,0,1,43.28,107Z"/><path class="cls-4" d="M58.06,51.33V70.26a2,2,0,0,0,4,0V51.33A2,2,0,0,0,58.06,51.33Z"/><path class="cls-4" d="M71.83,51.33V70.26a2,2,0,0,0,4,0V51.33A2,2,0,0,0,71.83,51.33Z"/><path class="cls-4" d="M85.59,51.33V70.26a2,2,0,0,0,4,0V51.33A2,2,0,0,0,85.59,51.33Z"/><path class="cls-4" d="M100,90.51H53.64a2,2,0,0,0,0,4h39a10.18,10.18,0,0,0-2.06,5H81a2,2,0,0,0,0,4H90.9a10.24,10.24,0,0,0,20.1-2.76C111,95.83,107.37,90.51,100,90.51Zm.76,16.49a6.24,6.24,0,1,1,6.24-6.24A6.25,6.25,0,0,1,100.76,107Z"/></g></svg>